<svg xmlns:xlink="http://www.w3.org/1999/xlink">
    <symbol viewBox="0 0 16 16" id="search" xmlns="http://www.w3.org/2000/svg">
        <defs>
            <g id="search_icon">
                <path d="M15.4688 14.5688L11.7875 10.8875C12.7 9.775 13.25 8.35 13.25 6.79688C13.25 3.23438 10.3594 0.34375 6.79688 0.34375C3.23125 0.34375 0.34375 3.23438 0.34375 6.79688C0.34375 10.3594 3.23125 13.25 6.79688 13.25C8.35 13.25 9.77187 12.7031 10.8844 11.7906L14.5656 15.4688C14.8156 15.7188 15.2188 15.7188 15.4688 15.4688C15.7188 15.2219 15.7188 14.8156 15.4688 14.5688ZM6.79688 11.9656C3.94375 11.9656 1.625 9.64688 1.625 6.79688C1.625 3.94688 3.94375 1.625 6.79688 1.625C9.64688 1.625 11.9688 3.94688 11.9688 6.79688C11.9688 9.64688 9.64688 11.9656 6.79688 11.9656Z"/>
            </g>
        </defs>
        <use xlink:href="#search_icon" transform="translate(0 0 16 16)"/>
    </symbol>

    <symbol viewBox="0 0 16 15" id="star" xmlns="http://www.w3.org/2000/svg">
        <defs>
            <g id="star_icon">
                <path d="M8 0L9.79611 5.52786H15.6085L10.9062 8.94427L12.7023 14.4721L8 11.0557L3.29772 14.4721L5.09383 8.94427L0.391548 5.52786H6.20389L8 0Z"/>
            </g>
        </defs>
        <use xlink:href="#star_icon" transform="translate(0 0 16 15)"/>
    </symbol>

    <symbol viewBox="0 0 16 16" id="warning" xmlns="http://www.w3.org/2000/svg">
        <defs>
            <g id="warning_icon">
                <path d="M1.47492 15.5C0.649915 15.5 0.274915 14.9 0.649915 14.175L7.32491 1.05004C7.69991 0.325037 8.29991 0.325037 8.67491 1.05004L15.3499 14.175C15.7249 14.9 15.3499 15.5 14.5249 15.5H1.47492Z" fill="#FFCE31"/>
                <path d="M6.95013 5.90002L7.65013 10.525C7.72513 10.975 8.30013 10.975 8.37513 10.525L9.05013 5.90002C9.17513 4.10002 6.82513 4.10002 6.95013 5.90002Z" fill="#231F20"/>
                <path d="M8.00007 13.45C8.57997 13.45 9.05007 12.9799 9.05007 12.4C9.05007 11.8201 8.57997 11.35 8.00007 11.35C7.42017 11.35 6.95007 11.8201 6.95007 12.4C6.95007 12.9799 7.42017 13.45 8.00007 13.45Z" fill="#231F20"/>            </g>
        </defs>
        <use xlink:href="#warning_icon" transform="translate(0 0 16 16)"/>
    </symbol>

    <symbol viewBox="0 0 20 16" id="twitter" xmlns="http://www.w3.org/2000/svg">
        <defs>
            <g id="twitter_icon">
                <path fill-rule="evenodd" clip-rule="evenodd" d="M17.8434 4.30762C17.8452 4.25659 17.8462 4.20533 17.8462 4.15385C17.8462 4.10202 17.8452 4.05042 17.8433 3.99906L17.8461 3.99993C18.7077 3.50762 19.4359 2.3589 19.6923 1.84608C19.2597 2.2787 18.1617 2.42619 17.4843 2.4556C17.4724 2.42918 17.4603 2.40291 17.4479 2.37679C18.213 1.99993 18.8424 0.870552 19.0769 0.307617C17.9966 1.0278 17.0237 1.22122 16.6432 1.23035C15.8904 0.470595 14.8463 0 13.6923 0C11.3982 0 9.53848 1.85974 9.53848 4.15385C9.53848 4.52217 9.58642 4.8793 9.67639 5.21933C5.57236 4.90538 2.34367 2.03185 1.23077 0.61543C0.123077 3.56928 1.58974 5.53851 2.46154 6.15389C1.84615 6.27697 0.974359 5.79492 0.615385 5.53851C0.615385 8.12312 2.87179 9.2821 4 9.53851C3.63077 9.90774 2.61538 9.69235 2.15385 9.53851C3.13846 11.877 5.23077 12.5641 6.15385 12.6154C5.14345 14.0749 2.17883 14.2799 0.459272 14.1879L0 14.1538C7.60671e-05 14.1538 0.000152135 14.1539 0.000228202 14.1539C0.000152131 14.1539 7.60632e-05 14.1539 0 14.1539L0.000255951 14.1539C1.77039 15.2573 3.77226 15.9433 5.85744 15.9962C7.94271 16.049 10.0042 15.5431 11.828 14.5308C13.6519 13.5185 15.1717 12.0367 16.2299 10.2391C17.2881 8.44153 17.8462 6.39356 17.8462 4.30762H17.8434Z"/>
            </g>
        </defs>
        <use xlink:href="#twitter_icon" transform="translate(0 0 20 16)"/>
    </symbol>

    <symbol viewBox="0 0 12 24" id="facebook" xmlns="http://www.w3.org/2000/svg">
        <defs>
            <g id="facebook_icon">
                <path d="M7.63158 12V23H3.10526V12H1V8.15534H3.10526V5.16505C3.35789 1.91845 5.94737 1.0356 7.21053 1H11V4.73786H8.57895C7.82105 4.73786 7.63158 5.37864 7.63158 5.69903V8.15534H11L10.6842 12H7.63158Z"/>
            </g>
        </defs>
        <use xlink:href="#facebook_icon" transform="translate(0 0 12 24)"/>
    </symbol>

    <symbol viewBox="0 0 22 22" id="instagram" xmlns="http://www.w3.org/2000/svg">
        <defs>
            <g id="instagram_icon">
                <path fill-rule="evenodd" clip-rule="evenodd" d="M4.71429 0.0285645C2.50515 0.0285645 0.714286 1.81943 0.714286 4.02856V17.2857C0.714286 19.4948 2.50515 21.2857 4.71429 21.2857H17.9714C20.1806 21.2857 21.9714 19.4948 21.9714 17.2857V4.02856C21.9714 1.81943 20.1806 0.0285645 17.9714 0.0285645H4.71429ZM4.23265 1.54699C3.12808 1.54699 2.23265 2.44242 2.23265 3.54699V17.7674C2.23265 18.872 3.12808 19.7674 4.23265 19.7674H18.4531C19.5576 19.7674 20.4531 18.872 20.4531 17.7674V3.54699C20.4531 2.44242 19.5576 1.54699 18.4531 1.54699H4.23265Z"/>
                <path fill-rule="evenodd" clip-rule="evenodd" d="M11 17C14.3137 17 17 14.3137 17 11C17 7.68629 14.3137 5 11 5C7.68632 5 5.00003 7.68629 5.00003 11C5.00003 14.3137 7.68632 17 11 17ZM11 16C13.7615 16 16 13.7614 16 11C16 8.23858 13.7615 6 11 6C8.23861 6 6.00003 8.23858 6.00003 11C6.00003 13.7614 8.23861 16 11 16Z"/>
                <circle cx="16.4857" cy="4.14291" r="1.37143"/>
            </g>
        </defs>
        <use xlink:href="#instagram_icon" transform="translate(0 0 22 22)"/>
    </symbol>

    <symbol viewBox="0 0 512 512" id="youtube" xmlns="http://www.w3.org/2000/svg">
        <defs>
            <g id="youtube_icon">
                <path d="M490.24,113.92c-13.888-24.704-28.96-29.248-59.648-30.976C399.936,80.864,322.848,80,256.064,80    c-66.912,0-144.032,0.864-174.656,2.912c-30.624,1.76-45.728,6.272-59.744,31.008C7.36,138.592,0,181.088,0,255.904    C0,255.968,0,256,0,256c0,0.064,0,0.096,0,0.096v0.064c0,74.496,7.36,117.312,21.664,141.728    c14.016,24.704,29.088,29.184,59.712,31.264C112.032,430.944,189.152,432,256.064,432c66.784,0,143.872-1.056,174.56-2.816    c30.688-2.08,45.76-6.56,59.648-31.264C504.704,373.504,512,330.688,512,256.192c0,0,0-0.096,0-0.16c0,0,0-0.064,0-0.096    C512,181.088,504.704,138.592,490.24,113.92z M192,352V160l160,96L192,352z"/>            
            </g>
        </defs>
        <use xlink:href="#youtube_icon" transform="translate(0 0 512 512)"/>
    </symbol>

    <symbol viewBox="0 0 20 20" id="linkedin" xmlns="http://www.w3.org/2000/svg">
        <defs>
            <g id="linkedin_icon">
                <path d="M11.0168 19.6152H6.98625V6.44888H10.7481V8.32978C11.0168 7.79237 12.4946 5.91147 15.316 6.18017C18.9704 6.39513 19.7048 9.85243 19.6152 11.5542V19.6152H15.5847V12.3603C15.5847 10.6137 14.913 9.80764 13.7038 9.67328C11.4467 9.35084 10.972 11.3303 11.0168 12.3603V19.6152Z"/>
                <rect x="0.268707" y="6.44885" width="4.29923" height="13.1664"/>
                <circle cx="2.41832" cy="2.41832" r="2.41832"/>
            </g>
        </defs>
        <use xlink:href="#linkedin_icon" transform="translate(0 0 20 20)"/>
    </symbol>

    <symbol viewBox="0 0 24 24" id="content" xmlns="http://www.w3.org/2000/svg">
        <defs>
            <g id="content_icon">
                <path d="M0 4.8H12V0H0V4.8ZM0 14.4H12V9.6H0V14.4ZM0 24H12V19.2H0V24ZM18.6667 24H24V19.2H18.6667V24ZM18.6667 0V4.8H24V0H18.6667ZM18.6667 14.4H24V9.6H18.6667V14.4Z"/>
            </g>
        </defs>
        <use xlink:href="#content_icon" transform="translate(0 0 24 24)"/>
    </symbol>

    <symbol viewBox="0 0 24 24" id="store" xmlns="http://www.w3.org/2000/svg">
        <defs>
            <g id="store_icon">
                <path d="M22.6667 0H1.33333V3H22.6667V0ZM24 15V12L22.6667 4.5H1.33333L0 12V15H1.33333V24H14.6667V15H20V24H22.6667V15H24ZM12 21H4V15H12V21Z"/>
            </g>
        </defs>
        <use xlink:href="#store_icon" transform="translate(0 0 24 24)"/>
    </symbol>

    <symbol viewBox="0 0 24 24" id="weight" xmlns="http://www.w3.org/2000/svg">
        <defs>
            <g id="weight_icon">
                <path d="M21 3H19.7822C20.5519 4.32562 21 5.85984 21 7.5C21 12.4627 16.9627 16.5 12 16.5C7.03734 16.5 3 12.4627 3 7.5C3 5.85984 3.44813 4.32562 4.21781 3H3C1.34578 3 0 4.34578 0 6V21C0 22.6542 1.34578 24 3 24H21C22.6542 24 24 22.6542 24 21V6C24 4.34578 22.6542 3 21 3ZM12 15C16.1423 15 19.5 11.6423 19.5 7.5C19.5 3.35766 16.1423 0 12 0C7.85766 0 4.5 3.35766 4.5 7.5C4.5 11.6423 7.85766 15 12 15ZM11.9859 7.87781L13.56 4.20469C13.7241 3.82172 14.1666 3.64594 14.5458 3.81047C14.9264 3.97359 15.1027 4.41469 14.94 4.79484L13.3617 8.47688C13.6748 8.8125 13.875 9.25547 13.875 9.75C13.875 10.7855 13.0355 11.625 12 11.625C10.9645 11.625 10.125 10.7855 10.125 9.75C10.125 8.71969 10.9575 7.88578 11.9859 7.87781Z"/>            
            </g>
        </defs>
        <use xlink:href="#weight_icon" transform="translate(0 0 24 24)"/>
    </symbol>

    <symbol viewBox="0 0 24 24" id="warehouse" xmlns="http://www.w3.org/2000/svg">
        <defs>
            <g id="warehouse_icon">
                <path d="M22.8749 8.10596C22.7356 8.10658 22.5981 8.0726 22.4728 8.00662L11.9076 2.1457L1.34243 7.96689C1.117 8.08281 0.858445 8.09665 0.62363 8.00537C0.388816 7.91408 0.196982 7.72515 0.0903291 7.48013C-0.0163236 7.23511 -0.0290581 6.95408 0.0549266 6.69886C0.138911 6.44364 0.312736 6.23513 0.538161 6.11921L11.9076 0L23.277 6.11921C23.5167 6.18006 23.7246 6.34107 23.8559 6.56738C23.9871 6.79368 24.031 7.06706 23.9781 7.32831C23.9253 7.58957 23.7798 7.81766 23.5733 7.96321C23.3668 8.10876 23.1159 8.16005 22.8749 8.10596ZM7.33789 18.0397H1.85424V24H7.33789V18.0397ZM14.6494 18.0397H9.16577V24H14.6494V18.0397ZM21.961 18.0397H16.4773V24H21.961V18.0397ZM18.3052 10.0927H12.8215V16.053H18.3052V10.0927ZM10.9937 10.0927H5.51V16.053H10.9937V10.0927Z"/>            
            </g>
        </defs>
        <use xlink:href="#warehouse_icon" transform="translate(0 0 24 24)"/>
    </symbol>

    <symbol viewBox="0 0 24 24" id="delivery" xmlns="http://www.w3.org/2000/svg">
        <defs>
            <g id="delivery_icon">
                <path d="M2.18182 0C1.60316 0 1.04821 0.237053 0.63904 0.65901C0.22987 1.08097 0 1.65326 0 2.25V14.625H2.18182C2.18182 15.5201 2.52662 16.3786 3.14038 17.0115C3.75413 17.6444 4.58656 18 5.45455 18C6.32253 18 7.15496 17.6444 7.76871 17.0115C8.38247 16.3786 8.72727 15.5201 8.72727 14.625H15.2727C15.2727 15.5201 15.6175 16.3786 16.2313 17.0115C16.845 17.6444 17.6775 18 18.5455 18C19.4134 18 20.2459 17.6444 20.8596 17.0115C21.4734 16.3786 21.8182 15.5201 21.8182 14.625H24V9L20.7273 4.5H17.4545V0H2.18182ZM9.81818 2.25L14.1818 6.75L9.81818 11.25V7.875H3.27273V5.625H9.81818V2.25ZM17.4545 6.1875H20.1818L22.3309 9H17.4545V6.1875ZM5.45455 12.9375C5.88854 12.9375 6.30475 13.1153 6.61163 13.4318C6.91851 13.7482 7.09091 14.1774 7.09091 14.625C7.09091 15.0726 6.91851 15.5018 6.61163 15.8182C6.30475 16.1347 5.88854 16.3125 5.45455 16.3125C5.02056 16.3125 4.60434 16.1347 4.29746 15.8182C3.99058 15.5018 3.81818 15.0726 3.81818 14.625C3.81818 14.1774 3.99058 13.7482 4.29746 13.4318C4.60434 13.1153 5.02056 12.9375 5.45455 12.9375ZM18.5455 12.9375C18.9794 12.9375 19.3957 13.1153 19.7025 13.4318C20.0094 13.7482 20.1818 14.1774 20.1818 14.625C20.1818 15.0726 20.0094 15.5018 19.7025 15.8182C19.3957 16.1347 18.9794 16.3125 18.5455 16.3125C18.1115 16.3125 17.6952 16.1347 17.3884 15.8182C17.0815 15.5018 16.9091 15.0726 16.9091 14.625C16.9091 14.1774 17.0815 13.7482 17.3884 13.4318C17.6952 13.1153 18.1115 12.9375 18.5455 12.9375Z"/>
            </g>
        </defs>
        <use xlink:href="#delivery_icon" transform="translate(0 0 24 24)"/>
    </symbol>
</svg>
